<?xml version="1.0" encoding="UTF-8"?>
<svg id="b" data-name="Layer 2" xmlns="http://www.w3.org/2000/svg" viewBox="0 0 335.32 213.68">
  <g id="c" data-name="Layer 1" vector-effect="non-scaling-stroke">
    <path class="d" d="M123.26,56.85c14.53,12.54,50.96,13.03,70.51,13.98,33.4,1.19,64.75-11.66,97.32,3.63,5.66,2.66,10.54,7.63,17.15,4.69,17.46-6.55,17.43-33.83,3.83-44.66-6.26-5.15-14.72-5.42-22.22-7.52-5.52-1.3-12.11-6.54-2.89-8.25,30.97-4.47,57.87,21.51,45.13,52.84-3.41,6.71-9.19,11.31-14.06,16.96-3.98,4.24-6.02,8.78-3.23,14.27,1.69,3.85,4.59,7.55,6.07,11.39,5.85,14.97-3.34,29.67-4.61,44.29-1.55,11,7.08,13.57,6.47,21.47-.33,1.86-1.63,3.62-1.67,5.69.05,9.39,2.53,21.82-7.8,25.69-5.8,2.72-23.89,3.57-28.16-1.42-1.15-1.34-1.43-3.29-3.09-4.1-2.47-1.1-7.15-1.44-8.8-3.4-1.5-1.82-.19-4.38.98-6.07,2.1-3.06,5.74-3.68,8.73-5.91,2.43-1.77,4.19-4.42,4.84-7.35,1.05-4.22-.72-8.69-4.04-11.36-3.84-3.27-10.36-8.02-15.18-11.33-3.7-2.66-8.46-3.5-12.83-2.32-2.17.42-4.43,1.11-6.56.61-1.95-.46-3.52-2.13-5.08-2.89-1.25-.61-2.57-.76-3.96-.9-9.65-.58-22.7,1.74-32.61,4.42-16.85,4.75-37.42,15.34-54.06,15.66-2.19-.01-4.88-.43-6.98-.48-1.3-.02-2.24.21-2.85.89-.64.7-1.01,1.91-1.19,3.39-.87,5.17,1.74,11.31-1.24,15.67-1.56,2.07-3.47,4.02-4.26,6.56-1.29,4.72-2,8-6.81,10.05-6.88,2.89-17.41,3.69-24.05.97-3.27-1.42-4.54-4.67-3.49-8.03.32-1.68-.94-2.93-1.72-4.29-1.36-2.35-.39-5.57,1.84-7.11,2.73-1.99,7.83-2.85,10.21-4.74,3.25-2.81,2.39-8.1,1.54-11.86-1.63-5.64-7.66-7.48-12.24-10.45-13.53-7.89-22.21-16.39-24.28-32.46-1.9-12.21-3.42-22.47-10.64-32.94-5.58-7.85-5.5-28.99-13.3-32.18-3.18-1.17-5.13,2.99-8.41,3.42-2.55.58-5.18-.27-7.72.15-3.05.49-6.33,2.45-9.79,3.08-10.11,1.95-19.62-2.61-26.2-10.69-1.32-1.56-2.67-3.62-1.24-5.54,2.48-3.03,6.27-4.93,9.23-7.32,7.01-5.56,18.4-14.22,23.6-22.54,4.16-7.91,2.96-12.11,12.13-17.11,1.65-1.03,3.17-2.17,4.64-3.41,12.19-10.85,33.63-10.93,45.04,1.37,1.71,1.71,3.64,3.41,5.85,4.39,1.74.81,3.4,1.23,5.07,2.38,7.74,6.18,12.61,15.88,18.63,23.71,3.15,3.84,2.23,8.59-.3,12.63-.69,1.25-1.79,2.79-1.31,4.24l.05.12Z"/>
  </g>
</svg>