<?xml version="1.0" encoding="UTF-8"?>
<svg id="b" data-name="Layer 2" xmlns="http://www.w3.org/2000/svg" viewBox="0 0 175.46 288.86">
  <g id="c" data-name="Layer 1"   vector-effect="non-scaling-stroke">
    <g>
      <path d="M175.46,283.36c-41.11-46.04-102.36-157.2-112.88-218.02,4.34,2.12,8.03,4.52,11.85,6.66,5.05,2.83,10.51,5.25,16.3,5.58,5.78.33,11.97-1.74,15.37-6.44,3.4-4.69,3.05-12.11-1.57-15.61,4.32-3,4.46-9.98,1.02-13.97-3.44-3.98-9.35-5.14-14.5-4.01-5.14,1.13-9.64,4.19-13.71,7.54-4.06,3.35-7.86,7.06-12.32,9.85,4.76-7.9,9.56-16,11.48-25.02,1.92-9.02.45-19.28-6.02-25.86C68.17,1.72,65.06-.14,61.76,0s-6.59,2.88-6.45,6.18c-5.21-4.48-13.91-3.08-18.5,2.04-4.59,5.12-5.4,12.86-3.36,19.43s6.52,12.11,11.51,16.83c2.13,2.02,4.37,3.92,6.61,5.8,1.09.91,2.2,1.81,3.29,2.72.72.6,2.02,1.33,2.11,2.35.01.15,0,.32-.11.43-.55.62-3.18-1.48-3.72-1.76-1.24-.65-2.49-1.3-3.75-1.92-2.5-1.24-5.05-2.4-7.65-3.42-5.15-2.02-10.54-3.49-16.07-3.89-3.73-.27-7.59-.03-11,1.5-3.41,1.52-6.33,4.49-7.07,8.16-.74,3.67,1.15,7.89,4.66,9.19-3.55,6.8.87,15.85,7.9,18.93,7.02,3.08,15.43,1.19,21.88-2.95,6.22-3.99,10.99-9.8,15.61-15.59,7,63.41,68.06,177.86,111.29,224.79,2.18-1.83,4.36-3.66,6.53-5.5Z"/>
      <path d="M23.3,155.67c6.16-3.9,13.6-5.1,20.8-6.23-9.24.28-18.73-.73-27.02-4.82-8.28-4.1-15.21-11.67-16.79-20.77-.54-3.13-.41-6.51,1.19-9.25,1.6-2.74,4.94-4.62,8.01-3.81-.44-3.35,1.43-6.75,4.2-8.69,2.77-1.94,6.3-2.57,9.67-2.34,9.46.65,17.62,7.69,21.82,16.19,4.1,8.31,4.98,17.82,4.88,27.09.04.03.07.06.11.1,1.5-7.23,1.93-12.7,2.68-18.07.76-5.52,1.93-11.11,4.81-15.87,2.88-4.76,7.79-8.6,13.35-8.92,5.56-.32,11.41,3.72,11.95,9.26,2.74.25,5.08,2.31,6.25,4.8,1.17,2.49,1.31,5.34,1.05,8.08-.82,8.52-5.6,16.58-12.68,21.39-6.23,4.23-14.14,5.86-21.54,4.57,33.92,30.71,63.47,66.23,87.47,105.19-1.09,6.63-3.35,8.32-5.75,8.4-3.58-16.46-13.91-30.55-24.44-43.7-18.42-22.99-38.29-44.82-59.44-65.34,1.09,7.1,1.77,14.3.31,21.29-1.81,8.72-7.71,17.19-16.35,19.35-3.15.79-6.67.66-9.44-1.03-2.78-1.69-4.57-5.16-3.73-8.29-5.08-.96-9.4-5.15-10.53-10.2-1.59-7.12,3.01-14.46,9.17-18.36Z"/>
    </g>
  </g>
</svg>